<svg xmlns="http://www.w3.org/2000/svg" viewBox="0 0 48 48" height="48" width="48">
  <circle r="6.35" cy="142.483" cx="107.345" fill="#ff2a2a" transform="matrix(3.77953 0 0 3.77953 -381.714 -514.52)"/>
  <circle r="5.292" cx="107.345" cy="142.483" fill="#241c1c" transform="matrix(3.77953 0 0 3.77953 -381.714 -514.52)"/>
  <g fill="#fff">
    <path d="M37.082 29.948c3.254-6.979.218-15.305-6.758-18.558-6.978-3.254-15.304-.226-18.559 6.753-.216.463-.407.944-.572 1.434l-2.046-.954a.73.73 0 00-.79.12.731.731 0 00-.188.782l2.403 6.58a.717.717 0 00.921.43l6.594-2.383a.73.73 0 00.475-.65.73.73 0 00-.414-.682l-2.27-1.058c.132-.503.31-.988.529-1.455 2.06-4.42 7.335-6.341 11.754-4.28 4.42 2.06 6.34 7.337 4.28 11.757-2.061 4.42-7.339 6.337-11.756 4.277a.72.72 0 00-.958.35l-1.552 3.33a.722.722 0 00.347.958c6.976 3.253 15.308.222 18.56-6.751z"/>
  </g>
  <g fill="#241c1c">
    <path d="M9.448 35.041l29.69-23.11 1.864 2.957L11.312 38z"/>
    <path d="M7.66 32.944L37.352 9.833l1.863 2.958-29.69 23.111z"/>
  </g>
  <path fill="#ff2a2a" d="M4.024 36.13l36.97-27.518 2.321 3.523-36.97 27.517z"/>
</svg>
